<?xml version="1.0" standalone="no"?><!DOCTYPE svg PUBLIC "-//W3C//DTD SVG 1.1//EN" "http://www.w3.org/Graphics/SVG/1.1/DTD/svg11.dtd"><svg t="1743947736213" class="icon" viewBox="0 0 4840 1024" version="1.1" xmlns="http://www.w3.org/2000/svg" p-id="2576" width="75.625" height="16" xmlns:xlink="http://www.w3.org/1999/xlink"><path d="M668.206545 667.182545c-14.429091 0.930909-11.822545 17.687273-8.657454 28.57891 3.351273 10.798545 7.633455 18.152727 13.684364 27.74109 4.096 6.237091 6.981818 15.546182-4.189091 22.528-24.669091 15.639273-67.584-5.213091-69.632-6.23709a322.466909 322.466909 0 0 1-121.111273-123.81091 384.186182 384.186182 0 0 1-47.662546-168.02909c-0.744727-14.429091 3.444364-19.549091 17.501091-22.155637 18.525091-3.630545 37.515636-4.096 56.133819-1.489454 78.196364 11.636364 144.849455 47.476364 200.704 103.889454 28.672 29.137455 51.2 63.301818 73.541818 97.28l7.261091 11.170909c26.437818 39.842909 54.830545 77.917091 90.949818 109.102546 12.846545 10.891636 22.993455 19.176727 32.768 25.320727-29.416727 3.351273-78.568727 4.096-112.174546-22.993455-76.613818-61.44-113.757091-81.733818-129.117091-80.896zM845.451636 495.336727a11.357091 11.357091 0 0 0-11.357091 11.543273 11.264 11.264 0 1 0 22.528 0 11.450182 11.450182 0 0 0-11.170909-11.543273z" p-id="2577" fill="#dbdbdb"></path><path d="M926.533818 572.695273a65.442909 65.442909 0 0 0 21.690182-6.050909c8.471273-3.723636 11.636364-9.588364 9.122909-16.942546a140.288 140.288 0 0 0-16.290909-31.650909l-2.141091-3.351273a223.697455 223.697455 0 0 0-22.993454-30.999272l-1.024-0.930909c-13.498182-13.498182-23.086545-23.086545-35.74691-28.392728-13.963636-5.585455-28.858182-8.098909-41.984-0.465454a39.098182 39.098182 0 0 0-7.074909 7.819636 9.588364 9.588364 0 0 0 4.189091 13.405091c2.792727 1.675636 5.957818 2.792727 9.309091 2.885818 9.588364 0 18.338909 1.582545 25.227637 7.447273 8.471273 7.168 11.357091 14.987636 8.750545 27.275636a66.094545 66.094545 0 0 0-0.558545 21.969455c2.792727 13.684364 8.936727 18.897455 17.687272 26.251636l2.606546 2.141091c8.378182 6.516364 18.618182 9.867636 29.230545 9.588364z" p-id="2578" fill="#dbdbdb"></path><path d="M512 0a512 512 0 1 0 0 1024h3816.727273a512 512 0 1 0 0-1024h-3816.727273z m716.8 246.784c3.909818-4.282182 8.005818-8.657455 15.080727-5.026909 8.936727 4.468364 9.774545 13.405091 9.122909 21.969454-4.933818 56.32-25.6 103.237818-76.893091 131.723637a150.900364 150.900364 0 0 1-56.692363 17.780363c-7.168 0.744727-8.564364 3.258182-8.378182 9.681455 0 2.978909 0.279273 5.771636 0.465455 8.564364 0.372364 6.981818 0.930909 13.777455-0.465455 23.086545-20.852364 143.546182-70.190545 199.866182-109.102545 244.363636-5.306182 6.144-10.519273 12.101818-15.36 17.966546 6.795636 5.306182 7.447273 5.585455 12.288 6.981818 6.330182 2.048 20.107636 6.237091 65.163636 27.741091 9.774545 4.654545 11.636364 30.161455-15.36 36.026182-17.221818 3.630545-39.470545 6.981818-62.557091 4.747636-29.975273-2.606545-48.034909-6.144-65.349818-14.894545-68.235636 59.112727-128.837818 66.56-183.202909 69.725091-89.646545 5.399273-168.122182-22.807273-236.264728-80.151273-65.815273-55.389091-108.544-126.231273-123.345454-211.781818-14.056727-81.175273-2.606545-158.999273 46.266182-227.607273 40.587636-56.971636 95.883636-90.298182 165.050182-98.210909a345.367273 345.367273 0 0 1 105.751272 3.723636c5.864727-1.210182 11.543273-2.792727 17.035637-5.026909 37.329455-14.522182 66.653091-25.506909 98.676363-25.6 32.023273-0.186182 38.446545 12.288 28.578909 16.011637-9.495273 3.444364-50.455273 32.954182-14.242909 68.794181 8.657455 5.585455 17.035636 11.450182 25.227637 17.687273 24.762182 18.618182 46.08 40.96 67.397818 63.301818 9.216 9.681455 18.432 19.362909 27.927273 28.765091 18.245818 18.618182 39.842909 33.698909 63.767272 44.125091 7.074909 2.978909 10.053818 1.489455 12.101818-5.213091 1.303273-4.654545 2.792727-9.216 4.282182-13.777454 1.861818-5.771636 3.723636-11.543273 5.399273-17.408 1.582545-5.12 0.279273-8.657455-4.747636-12.101819-44.125091-30.440727-66.373818-73.355636-67.397819-127.06909-0.465455-23.924364 4.002909-47.476364 15.453091-68.980364l0.558546-1.117091c2.792727-4.933818 5.678545-10.333091 12.567273-9.309091 6.609455 1.024 8.657455 7.074909 10.612363 13.032727l0.093091 0.186182 2.048 6.888727c2.141091 7.633455 4.282182 15.173818 9.122909 22.062546 9.029818 12.660364 21.969455 18.525091 34.909091 24.296727h0.186182c24.669091 11.357091 40.96 28.858182 45.707636 58.088727 22.993455-23.738182 48.965818-33.512727 79.406546-31.83709 20.852364 1.210182 36.770909-8.471273 50.362182-23.365819l0.279272-0.279272c1.489455-1.768727 3.072-3.444364 4.840728-4.840728a38.725818 38.725818 0 0 0 3.630545-3.723636z m1405.021091 455.773091V631.156364h45.986909c28.392727 0 57.157818-6.981818 75.869091-26.717091 18.618182-19.735273 25.413818-50.269091 25.413818-80.337455 0-30.068364-6.795636-60.322909-25.413818-80.058182-18.618182-19.735273-47.476364-26.810182-75.869091-26.810181-28.578909 0-57.250909 7.074909-75.869091 26.810181-18.804364 19.735273-25.506909 49.989818-25.506909 80.058182v292.957091h-80.616727v-471.04h80.616727v29.789091h14.801455a69.073455 69.073455 0 0 1 4.933818-4.933818c20.107636-18.432 51.013818-24.855273 81.640727-24.855273 47.476364 0 95.232 11.729455 126.417455 44.683636 30.999273 32.861091 42.263273 83.409455 42.263272 133.585455 0 50.082909-11.170909 100.538182-42.263272 133.492364-31.185455 33.047273-79.034182 44.683636-126.417455 44.683636h-45.986909zM1497.646545 358.4v71.307636h-45.986909c-28.485818 0-57.250909 6.981818-75.869091 26.996364-18.618182 19.642182-25.506909 49.989818-25.506909 80.058182 0 30.068364 6.795636 60.416 25.506909 80.058182 18.618182 19.828364 47.476364 26.996364 75.869091 26.996363 28.578909 0 57.250909-7.168 75.869091-26.996363 18.804364-19.642182 25.506909-49.989818 25.506909-80.058182V243.898182h80.616728v471.04h-80.616728V685.149091h-14.801454a32.116364 32.116364 0 0 1-4.933818 4.933818c-20.200727 18.432-51.013818 25.134545-81.640728 25.134546-47.476364 0-95.232-11.822545-126.417454-44.869819-31.092364-32.861091-42.263273-83.316364-42.263273-133.492363 0-50.269091 11.170909-100.538182 42.263273-133.678546 31.185455-32.861091 78.941091-44.683636 126.417454-44.683636h45.986909z m496.919273 33.792c32.581818 34.164364 44.125091 86.388364 44.125091 138.24v28.672h-214.853818V501.76h142.429091a100.817455 100.817455 0 0 0-24.203637-54.272c-19.549091-20.48-49.152-27.927273-78.94109-27.927273-29.509818 0-59.485091 7.447273-78.848 27.927273-19.362909 20.293818-26.344727 51.665455-26.344728 82.850909 0 31.278545 6.981818 62.650182 26.344728 83.130182 19.362909 20.48 49.338182 27.741091 78.848 27.741091 29.789091 0 59.485091-7.261091 79.034181-27.741091a92.16 92.16 0 0 0 7.447273-9.402182h79.685818a151.179636 151.179636 0 0 1-34.722909 64.605091c-32.581818 34.071273-82.106182 46.266182-131.444363 46.266182-49.338182 0-98.955636-12.101818-131.258182-46.266182-32.488727-34.164364-44.125091-86.481455-44.125091-138.333091 0-51.851636 11.636364-104.075636 44.125091-138.24 32.302545-33.978182 81.92-46.08 131.258182-46.08 49.338182 0 98.955636 12.101818 131.444363 46.08z m448.977455 166.912H2228.596364V501.76h142.708363a99.793455 99.793455 0 0 0-24.389818-54.272c-19.362909-20.48-49.058909-27.927273-78.754909-27.927273-29.602909 0-59.485091 7.447273-78.848 27.927273-19.362909 20.293818-26.437818 51.665455-26.437818 82.850909 0 31.278545 7.074909 62.650182 26.437818 83.130182 19.362909 20.48 49.338182 27.741091 78.754909 27.741091 29.789091 0 59.578182-7.261091 78.848-27.741091a75.776 75.776 0 0 0 7.633455-9.402182h79.778909a153.6 153.6 0 0 1-34.816 64.605091c-32.395636 34.071273-82.106182 46.266182-131.444364 46.266182-49.245091 0-98.862545-12.101818-131.351273-46.266182-32.302545-34.164364-43.938909-86.481455-43.938909-138.333091 0-51.851636 11.636364-104.075636 43.938909-138.24 32.488727-33.978182 82.199273-46.08 131.444364-46.08 49.338182 0 98.955636 12.101818 131.444364 46.08 32.209455 34.164364 43.845818 86.388364 43.845818 138.24v28.672z m765.858909 128.651636c-32.302545 20.107636-81.92 27.275636-131.258182 27.275637-49.524364 0-98.955636-7.168-131.444364-27.275637-32.302545-20.107636-43.938909-50.920727-43.938909-81.640727h94.580364c0 11.822545 5.585455 23.831273 20.852364 31.650909 15.080727 7.726545 38.539636 10.612364 61.812363 10.612364 23.272727 0 46.731636-2.885818 61.998546-10.612364 15.266909-7.819636 20.666182-19.828364 20.666181-31.650909 0-11.915636-5.306182-23.924364-20.666181-31.650909-15.266909-7.819636-40.587636-10.612364-63.860364-10.612364-44.683636 0-89.553455-7.168-118.877091-27.275636-29.323636-20.107636-39.842909-51.013818-39.842909-81.640727 0-30.626909 10.519273-61.44 39.842909-81.547637 29.323636-20.107636 74.193455-27.275636 118.877091-27.275636 44.683636 0 89.553455 7.168 118.877091 27.275636 29.137455 20.107636 39.656727 51.013818 39.656727 81.547637h-82.106182a34.722909 34.722909 0 0 0-18.618181-31.650909c-13.870545-7.819636-35.095273-10.612364-56.133819-10.612364-21.038545 0-42.356364 2.792727-55.947636 10.612364a34.909091 34.909091 0 0 0-18.804364 31.650909 34.629818 34.629818 0 0 0 18.804364 31.650909c13.684364 7.912727 34.816 10.705455 55.947636 10.705454h-1.675636c49.338182 0 98.955636 7.168 131.258182 27.275637 32.488727 20.107636 44.125091 51.013818 44.125091 81.547636 0 30.72-11.636364 61.44-44.125091 81.640727z m448.977454-128.651636H3443.432727V501.76h142.708364c-3.258182-20.852364-10.891636-40.215273-24.389818-54.272-19.362909-20.48-49.058909-27.927273-78.754909-27.927273-29.509818 0-59.485091 7.447273-78.848 27.927273-19.362909 20.293818-26.437818 51.665455-26.437819 82.850909 0 31.278545 7.074909 62.650182 26.437819 83.130182 19.362909 20.48 49.338182 27.741091 78.848 27.741091 29.696 0 59.392-7.261091 78.754909-27.741091a73.076364 73.076364 0 0 0 7.633454-9.402182h79.685818a153.413818 153.413818 0 0 1-34.629818 64.605091c-32.581818 34.071273-82.199273 46.266182-131.444363 46.266182-49.338182 0-98.955636-12.101818-131.444364-46.266182-32.302545-34.164364-43.938909-86.481455-43.938909-138.333091 0-51.851636 11.636364-104.075636 43.938909-138.24 32.488727-33.978182 82.106182-46.08 131.444364-46.08 49.338182 0 98.862545 12.101818 131.444363 46.08 32.209455 34.164364 43.938909 86.388364 43.938909 138.24v28.672z m404.945455 0h-214.853818V501.76h142.615272c-3.444364-20.852364-10.798545-40.215273-24.203636-54.272-19.549091-20.48-49.338182-27.927273-78.941091-27.927273-29.509818 0-59.392 7.447273-78.754909 27.927273-19.549091 20.293818-26.437818 51.665455-26.437818 82.850909 0 31.278545 6.795636 62.650182 26.437818 83.130182 19.362909 20.48 49.245091 27.741091 78.754909 27.741091 29.602909 0 59.485091-7.261091 78.848-27.741091 2.792727-2.978909 5.12-6.050909 7.540364-9.402182h79.778909a152.017455 152.017455 0 0 1-34.909091 64.605091c-32.302545 34.071273-81.92 46.266182-131.258182 46.266182-49.245091 0-99.141818-12.101818-131.444363-46.266182-32.209455-34.164364-43.845818-86.481455-43.845819-138.333091 0-51.851636 11.636364-104.075636 43.845819-138.24 32.302545-33.978182 82.199273-46.08 131.444363-46.08 49.338182 0 98.955636 12.101818 131.258182 46.08 32.581818 34.164364 44.125091 86.388364 44.125091 138.24v28.672z m134.981818-331.589818v487.703273h-80.616727V227.514182h80.616727zM4468.363636 715.031273h-100.072727L4235.915636 519.447273l132.375273-156.858182H4468.363636l-132.375272 156.858182L4468.363636 715.031273z" p-id="2579" fill="#dbdbdb"></path></svg>