<?xml version="1.0" standalone="no"?><!DOCTYPE svg PUBLIC "-//W3C//DTD SVG 1.1//EN" "http://www.w3.org/Graphics/SVG/1.1/DTD/svg11.dtd"><svg t="1744339205832" class="icon" viewBox="0 0 1024 1024" version="1.1" xmlns="http://www.w3.org/2000/svg" p-id="7009" xmlns:xlink="http://www.w3.org/1999/xlink" width="16" height="16"><path d="M342.1696 690.432H268.8512l129.2288-356.864h90.6752l125.3376 356.864h-77.1584l-26.9824-75.264H369.152z m46.08-135.0144h102.4l-48.1792-152.3712H440.32zM725.9648 333.568v356.864h-77.1584v-356.864zM168.3968 368.64V168.3968H368.64v-40.96H147.9168a20.48 20.48 0 0 0-20.48 20.48V368.64zM655.36 168.3968h200.2432V368.64h40.96V147.9168a20.48 20.48 0 0 0-20.48-20.48H655.36zM368.64 855.6032H168.3968V655.36h-40.96v220.7232a20.48 20.48 0 0 0 20.48 20.48H368.64zM855.6032 655.36v200.2432H655.36v40.96h220.7232a20.48 20.48 0 0 0 20.48-20.48V655.36z" fill="#db639b" p-id="7010"></path></svg>