<?xml version="1.0" standalone="no"?><!DOCTYPE svg PUBLIC "-//W3C//DTD SVG 1.1//EN" "http://www.w3.org/Graphics/SVG/1.1/DTD/svg11.dtd"><svg t="1743511260994" class="icon" viewBox="0 0 1024 1024" version="1.1" xmlns="http://www.w3.org/2000/svg" p-id="3590" xmlns:xlink="http://www.w3.org/1999/xlink" width="16" height="16"><path d="M820.736 912.4352l-65.6896-65.8432a170.496 170.496 0 0 1-265.9328-140.9024 170.24 170.24 0 1 1 340.48 0 167.7824 167.7824 0 0 1-29.184 95.0272l65.8432 66.048a32.4608 32.4608 0 0 1 0 45.6192 32.8192 32.8192 0 0 1-45.5168 0.0512z m-266.8544-206.6944a105.8304 105.8304 0 0 0 180.8896 74.6496c19.7632-19.7632 30.8736-46.592 30.9248-74.5472a105.8304 105.8304 0 0 0-105.8304-105.8304 105.8304 105.8304 0 0 0-106.3424 105.6768h0.3584z m-308.224 92.0064A92.3136 92.3136 0 0 1 153.6 705.7408V245.6064C153.6 194.816 194.816 153.6 245.6064 153.6h506.112c50.8416 0 92.0064 41.216 92.0064 92.0064v322.048a228.1472 228.1472 0 0 0-184.0128-92.0064 230.0416 230.0416 0 0 0-210.944 321.792l-203.1616 0.3072z m-23.04-335.872c90.3168 0 128.8192 38.5024 128.8192 128.8192 0-90.3168 38.7584-128.8192 128.6144-128.8192-90.112 0-128.6144-38.7584-128.6144-128.8192-0.3584 90.112-38.7584 128.768-129.1776 128.768h0.3584z m202.4448-156.4672c58.0608 0 82.7904 24.7296 82.7904 82.8416 0-58.0608 24.9344-82.8416 82.8416-82.8416-58.1632 0-82.8416-24.9344-82.8416-82.7904-0.3584 57.856-25.1904 82.7904-83.1488 82.7904h0.3584z" fill="#B478FC" p-id="3591"></path></svg>